<svg xmlns="http://www.w3.org/2000/svg" width="19" height="19" viewBox="0 0 19 19" fill="none">
  <path fill-rule="evenodd" clip-rule="evenodd" d="M14.269 13.3837C14.7671 12.8856 15.0469 12.21 15.0469 11.5056C15.0469 10.8012 14.7671 10.1256 14.269 9.62745L10.1815 5.53995C10.0643 5.42276 9.99835 5.26378 9.99829 5.09798C9.99823 4.93219 10.064 4.77316 10.1812 4.65589C10.2984 4.53861 10.4574 4.4727 10.6232 4.47264C10.789 4.47258 10.948 4.53838 11.0653 4.65558L15.1528 8.74308C15.8855 9.47557 16.2971 10.4691 16.2972 11.5051C16.2974 12.5412 15.8859 13.5348 15.1534 14.2675C14.4209 15.0001 13.4274 15.4118 12.3914 15.4119C11.3553 15.412 10.3617 15.0006 9.62904 14.2681L4.65779 9.2962C4.13026 8.76859 3.83393 8.05302 3.83398 7.30692C3.83404 6.56082 4.13049 5.8453 4.6581 5.31776C5.18572 4.79023 5.90128 4.4939 6.64739 4.49396C7.39349 4.49402 8.10901 4.79046 8.63654 5.31808L13.6072 10.2887C13.9219 10.6129 14.0965 11.0478 14.0931 11.4997C14.0897 11.9515 13.9087 12.3838 13.5892 12.7032C13.2697 13.0227 12.8373 13.2036 12.3855 13.2068C11.9337 13.2101 11.4987 13.0354 11.1747 12.7206L6.64591 8.1912C6.52864 8.07401 6.46272 7.91503 6.46266 7.74923C6.4626 7.58344 6.52841 7.42441 6.6456 7.30714C6.76279 7.18986 6.92177 7.12395 7.08757 7.12389C7.25336 7.12383 7.41239 7.18963 7.52966 7.30683L12.059 11.8362C12.1471 11.9243 12.2665 11.9738 12.391 11.9739C12.5155 11.9739 12.635 11.9245 12.7231 11.8365C12.8112 11.7485 12.8607 11.6291 12.8608 11.5045C12.8608 11.38 12.8114 11.2606 12.7234 11.1725L7.75279 6.20183C7.60768 6.05663 7.43539 5.94144 7.24576 5.86283C7.05614 5.78423 6.85288 5.74374 6.64761 5.74368C6.44233 5.74362 6.23905 5.78399 6.04938 5.8625C5.85971 5.941 5.68736 6.05609 5.54216 6.2012C5.24893 6.49427 5.08413 6.89181 5.08402 7.30638C5.0839 7.72096 5.24848 8.1186 5.54154 8.41183L10.5128 13.3831C11.0109 13.8811 11.6865 14.1609 12.3909 14.1609C13.0953 14.1609 13.7709 13.8811 14.269 13.3831V13.3837Z" fill="#667085"/>
</svg>
