<svg xmlns="http://www.w3.org/2000/svg" width="32" height="32" viewBox="0 0 32 32" fill="none">
  <path d="M9.33301 9.33334H7.99967C7.29243 9.33334 6.61415 9.61429 6.11406 10.1144C5.61396 10.6145 5.33301 11.2928 5.33301 12V24C5.33301 24.7073 5.61396 25.3855 6.11406 25.8856C6.61415 26.3857 7.29243 26.6667 7.99967 26.6667H19.9997C20.7069 26.6667 21.3852 26.3857 21.8853 25.8856C22.3854 25.3855 22.6663 24.7073 22.6663 24V22.6667" stroke="#667085" stroke-width="2" stroke-linecap="round" stroke-linejoin="round"/>
  <path d="M21.3333 6.66667L25.3333 10.6667M27.18 8.78001C27.7051 8.25488 28.0001 7.54265 28.0001 6.80001C28.0001 6.05736 27.7051 5.34513 27.18 4.82001C26.6549 4.29488 25.9426 3.99986 25.2 3.99986C24.4574 3.99986 23.7451 4.29488 23.22 4.82001L12 16V20H16L27.18 8.78001Z" stroke="#667085" stroke-width="2" stroke-linecap="round" stroke-linejoin="round"/>
</svg>
