<svg xmlns="http://www.w3.org/2000/svg" width="22" height="22" viewBox="0 0 22 22" fill="none">
  <g clip-path="url(#clip0_143_974)">
    <path fill-rule="evenodd" clip-rule="evenodd" d="M17.1504 16.1013C17.8809 15.3707 18.2913 14.3799 18.2913 13.3467C18.2913 12.3136 17.8809 11.3227 17.1504 10.5921L11.1555 4.59713C10.9834 4.42525 10.8868 4.19208 10.8867 3.94891C10.8866 3.70575 10.9831 3.47251 11.155 3.30051C11.3269 3.1285 11.56 3.03182 11.8032 3.03174C12.0464 3.03165 12.2796 3.12817 12.4516 3.30005L18.4466 9.29505C19.5212 10.3694 20.125 11.8266 20.1251 13.3461C20.1253 14.8656 19.5219 16.3229 18.4475 17.3975C17.3732 18.472 15.916 19.0758 14.3965 19.076C12.877 19.0762 11.4197 18.4727 10.3451 17.3984L3.05395 10.1063C2.28024 9.33246 1.84562 8.28297 1.8457 7.18868C1.84579 6.0944 2.28057 5.04497 3.05441 4.27126C3.82824 3.49754 4.87774 3.06292 5.97202 3.06301C7.06631 3.0631 8.11574 3.49788 8.88945 4.27172L16.1797 11.562C16.6413 12.0374 16.8973 12.6754 16.8924 13.338C16.8875 14.0007 16.622 14.6348 16.1534 15.1033C15.6847 15.5718 15.0506 15.8371 14.3879 15.8419C13.7253 15.8466 13.0873 15.5905 12.612 15.1287L5.96987 8.48563C5.79786 8.31375 5.70118 8.08058 5.7011 7.83741C5.70101 7.59425 5.79753 7.36101 5.96941 7.18901C6.14129 7.017 6.37446 6.92032 6.61763 6.92024C6.86079 6.92015 7.09403 7.01667 7.26603 7.18855L13.9091 13.8316C14.0382 13.9608 14.2134 14.0335 14.396 14.0336C14.5787 14.0337 14.7539 13.9612 14.8831 13.8321C15.0123 13.703 15.0849 13.5279 15.085 13.3452C15.0851 13.1626 15.0126 12.9873 14.8835 12.8581L7.59328 5.56788C7.38046 5.35493 7.12777 5.18599 6.84965 5.07069C6.57153 4.9554 6.27342 4.89602 5.97235 4.89593C5.67128 4.89585 5.37314 4.95506 5.09495 5.0702C4.81677 5.18533 4.56398 5.35414 4.35103 5.56697C3.92096 5.99679 3.67926 6.57986 3.67908 7.1879C3.67891 7.79594 3.92029 8.37915 4.35012 8.80922L11.6413 16.1004C12.3719 16.8309 13.3627 17.2413 14.3959 17.2413C15.429 17.2413 16.4199 16.8309 17.1504 16.1004V16.1013Z" fill="#667085"/>
  </g>
  <defs>
    <clipPath id="clip0_143_974">
      <rect width="22" height="22" fill="white"/>
    </clipPath>
  </defs>
</svg>
