<svg xmlns="http://www.w3.org/2000/svg" width="110" height="28" viewBox="0 0 110 28" fill="none">
  <g clip-path="url(#clip0_66_1047)">
    <mask id="mask0_66_1047" style="mask-type:luminance" maskUnits="userSpaceOnUse" x="0" y="0" width="28" height="28">
      <path d="M27.8022 0.0989075H0V27.9011H27.8022V0.0989075Z" fill="white"/>
    </mask>
    <g mask="url(#mask0_66_1047)">
      <path d="M13.8842 0.0819163C13.963 0.0820648 13.963 0.0820648 14.0434 0.0822162C14.8217 0.084683 15.579 0.112316 16.3448 0.261789C16.4178 0.2749 16.4178 0.2749 16.4923 0.288276C19.7401 0.875957 22.8632 2.72533 24.8701 5.3661C24.8927 5.39543 24.9153 5.42477 24.9386 5.455C25.3558 5.99774 25.722 6.56574 26.0646 7.15804C26.086 7.19479 26.1075 7.2316 26.1296 7.2695C26.8453 8.51401 27.3127 9.90273 27.602 11.3053C27.6101 11.3439 27.6181 11.3825 27.6263 11.4222C27.7884 12.2717 27.8227 13.1206 27.8193 13.983C27.8191 14.0618 27.8191 14.0618 27.819 14.1422C27.8165 14.9205 27.7889 15.6778 27.6394 16.4436C27.6306 16.4923 27.6219 16.541 27.6129 16.5911C27.0252 19.8389 25.1758 22.962 22.5351 24.9688C22.5057 24.9915 22.4764 25.0141 22.4462 25.0374C21.9034 25.4546 21.3354 25.8207 20.7431 26.1634C20.7064 26.1848 20.6696 26.2062 20.6317 26.2283C19.3872 26.9441 17.9984 27.4114 16.5959 27.7008C16.5573 27.7088 16.5187 27.7169 16.4789 27.7251C15.6295 27.8872 14.7805 27.9214 13.9182 27.9181C13.8656 27.9179 13.8131 27.9179 13.759 27.9178C12.9807 27.9153 12.2234 27.8877 11.4577 27.7382C11.409 27.7294 11.3602 27.7207 11.31 27.7117C8.0623 27.124 4.9392 25.2746 2.93236 22.6339C2.90974 22.6045 2.88711 22.5752 2.8638 22.545C2.44658 22.0022 2.08047 21.4342 1.73774 20.8419C1.71633 20.8052 1.69492 20.7684 1.67285 20.7305C0.957045 19.486 0.489755 18.0972 0.200336 16.6947C0.19233 16.6561 0.184323 16.6175 0.176075 16.5777C0.0139664 15.7283 -0.0202527 14.8793 -0.0168691 14.017C-0.0167702 13.9644 -0.0166712 13.9119 -0.0165692 13.8578C-0.0141024 13.0795 0.0135308 12.3222 0.163003 11.5564C0.176115 11.4833 0.176115 11.4833 0.189491 11.4088C0.777171 8.16104 2.62655 5.03799 5.26731 3.03115C5.29665 3.00852 5.32599 2.9859 5.35622 2.96258C5.89896 2.54537 6.46694 2.17925 7.05925 1.83652C7.09605 1.81511 7.1328 1.7937 7.1707 1.77164C8.41521 1.05583 9.80393 0.58854 11.2065 0.299121C11.2451 0.291115 11.2837 0.283109 11.3234 0.274861C12.1729 0.112752 13.0219 0.0785328 13.8842 0.0819163Z" fill="#72C7EF"/>
      <path d="M13.8842 0.0819163C13.963 0.0820648 13.963 0.0820648 14.0434 0.0822162C14.8217 0.084683 15.579 0.112316 16.3448 0.261789C16.4178 0.2749 16.4178 0.2749 16.4924 0.288276C19.7401 0.875957 22.8632 2.72533 24.8701 5.3661C24.8927 5.39543 24.9153 5.42477 24.9386 5.455C25.3558 5.99774 25.722 6.56574 26.0646 7.15804C26.086 7.19479 26.1075 7.2316 26.1296 7.2695C27.2551 9.22635 27.8503 11.529 27.8023 13.7828C27.4951 13.5325 27.235 13.2589 26.973 12.9622C26.5254 12.4608 26.0697 11.9679 25.6085 11.4789C25.3307 11.184 25.0568 10.8867 24.7899 10.5819C24.4792 10.2278 24.161 9.88248 23.8294 9.54795C23.8025 9.52081 23.7757 9.49367 23.7479 9.46575C22.9057 8.62606 22.1371 8.27823 20.9438 8.27237C20.3304 8.27775 19.7222 8.32701 19.1141 8.40697C19.1141 8.60406 19.1141 8.80122 19.1141 9.00429C18.7728 8.72748 18.4719 8.41507 18.1674 8.09933C17.9739 7.89922 17.7787 7.70079 17.584 7.50195C17.4135 7.3277 17.2435 7.15291 17.0746 6.97703C16.9104 6.80598 16.7447 6.63645 16.5779 6.46782C16.515 6.40358 16.4525 6.33885 16.3906 6.27357C16.0732 5.91571 16.0732 5.91571 15.6564 5.71709C15.5153 5.72945 15.394 5.75912 15.2587 5.80051C15.1766 5.81431 15.0942 5.82708 15.0118 5.83879C14.9267 5.85355 14.8416 5.86851 14.7566 5.88366C14.6861 5.89599 14.6861 5.89599 14.614 5.90858C14.4589 5.93572 14.304 5.96314 14.1489 5.99056C14.0378 6.01007 13.9268 6.02955 13.8157 6.04903C13.5227 6.10044 13.2297 6.15209 12.9368 6.20382C12.7655 6.23411 12.5943 6.26427 12.423 6.29448C11.9722 6.3739 11.5214 6.45338 11.0706 6.5331C10.1635 6.69339 9.25622 6.85295 8.34891 7.01208C8.2849 7.02332 8.2209 7.03457 8.1549 7.04617C7.85131 7.09942 7.54772 7.15261 7.24413 7.20567C7.00793 7.24695 6.77186 7.28872 6.53584 7.33078C6.47842 7.34093 6.42094 7.35109 6.36171 7.36161C6.25335 7.38076 6.14498 7.40011 6.03661 7.41957C5.96442 7.43232 5.96442 7.43232 5.89077 7.44525C5.84883 7.45275 5.80689 7.46024 5.76368 7.46792C5.64742 7.48381 5.64742 7.48381 5.43022 7.48381C5.21985 9.46255 5.08013 11.4436 5.00679 13.432C5.00261 13.5449 4.99831 13.6577 4.994 13.7706C4.85946 17.359 4.89993 20.6103 7.46933 23.4021C7.99153 23.9575 8.5512 24.4688 9.1261 24.9688C9.16955 25.0068 9.21295 25.0447 9.25774 25.0838C10.3746 26.0568 11.5364 26.9591 12.7609 27.7925C12.743 27.8283 12.725 27.8642 12.7066 27.9011C8.99065 27.4839 5.57944 25.8373 3.16314 22.9325C3.08537 22.8336 3.00848 22.734 2.93236 22.6339C2.90974 22.6045 2.88711 22.5752 2.8638 22.545C2.44658 22.0022 2.08047 21.4342 1.73774 20.8419C1.71633 20.8052 1.69492 20.7684 1.67285 20.7305C0.957045 19.486 0.489755 18.0972 0.200336 16.6947C0.19233 16.6561 0.184323 16.6175 0.176075 16.5777C0.0139664 15.7283 -0.0202527 14.8793 -0.0168691 14.017C-0.0167702 13.9644 -0.0166712 13.9119 -0.0165692 13.8578C-0.0141024 13.0795 0.0135308 12.3222 0.163003 11.5564C0.176115 11.4833 0.176115 11.4833 0.189491 11.4088C0.777171 8.16104 2.62655 5.03799 5.26731 3.03115C5.29665 3.00852 5.32599 2.9859 5.35622 2.96258C5.89896 2.54537 6.46694 2.17925 7.05925 1.83652C7.09605 1.81511 7.1328 1.7937 7.1707 1.77164C8.41521 1.05583 9.80393 0.58854 11.2065 0.299121C11.2451 0.291115 11.2837 0.283109 11.3234 0.274861C12.1729 0.112752 13.0219 0.0785328 13.8842 0.0819163Z" fill="#D1EFFE"/>
      <path d="M15.7474 5.74622C15.7474 11.1937 15.7474 16.6412 15.7474 22.2537C15.421 22.2537 15.1448 22.2461 14.8313 22.1878C14.7712 22.1772 14.7712 22.1772 14.7098 22.1663C14.5771 22.1427 14.4444 22.1185 14.3118 22.0942C14.2162 22.0771 14.1206 22.0601 14.0249 22.043C13.7661 21.9967 13.5074 21.95 13.2487 21.9031C12.8071 21.8229 12.3653 21.7433 11.9236 21.6635C11.8094 21.6429 11.6952 21.6223 11.5809 21.6016C10.6293 21.4296 9.67661 21.2649 8.72306 21.1038C8.07194 20.9937 7.42107 20.882 6.77074 20.7673C6.73314 20.7607 6.69561 20.7541 6.65693 20.7473C6.24673 20.6751 5.8387 20.5978 5.43018 20.5161C5.43018 16.2155 5.43018 11.9148 5.43018 7.48388C7.12298 7.17038 7.12298 7.17038 7.96847 7.02297C8.02927 7.01239 8.09007 7.00176 8.15275 6.99082C8.21524 6.97994 8.27768 6.96906 8.34205 6.95782C8.4758 6.93443 8.60949 6.91104 8.74318 6.88765C9.02018 6.83917 9.29723 6.7907 9.57429 6.74229C10.051 6.65894 10.5277 6.57536 11.0043 6.49165C11.3311 6.43423 11.6579 6.37693 11.9847 6.31976C12.5193 6.2262 13.0538 6.13256 13.5879 6.03633C13.7904 5.99986 13.9929 5.96367 14.1954 5.9275C14.2873 5.911 14.3791 5.89436 14.4709 5.87755C14.5954 5.85475 14.72 5.83246 14.8446 5.81028C14.9134 5.79781 14.9821 5.78534 15.053 5.77249C15.2587 5.74622 15.2587 5.74622 15.7474 5.74622Z" fill="#1E73BE"/>
      <path d="M19.1685 13.5113C20.2257 13.5113 21.283 13.5113 22.3722 13.5113C22.3722 15.5182 22.3722 17.5253 22.3722 19.593C21.315 19.593 20.2578 19.593 19.1685 19.593C19.1685 17.5861 19.1685 15.5791 19.1685 13.5113Z" fill="#1E73BE"/>
      <path d="M8.68799 11.5021C11.6536 11.5021 11.6536 11.5021 12.3805 12.2081C12.8137 12.7271 12.9878 13.3139 12.9913 13.9762C12.9925 14.0279 12.9936 14.0796 12.9947 14.1329C12.9985 14.8255 12.76 15.4555 12.2719 15.9548C11.1881 16.8145 10.1306 16.5522 8.68799 16.5522C8.68799 14.8857 8.68799 13.2191 8.68799 11.5021Z" fill="#FBFDFE"/>
      <path d="M19.1685 8.40698C20.2257 8.40698 21.283 8.40698 22.3722 8.40698C22.3722 9.80471 22.3722 11.2024 22.3722 12.6425C21.315 12.6425 20.2578 12.6425 19.1685 12.6425C19.1685 11.2447 19.1685 9.84708 19.1685 8.40698Z" fill="#1E73BE"/>
      <path d="M16.562 8.40698C17.1534 8.40698 17.7447 8.40698 18.354 8.40698C18.354 10.7186 18.354 13.0302 18.354 15.4118C17.7626 15.4118 17.1713 15.4118 16.562 15.4118C16.562 13.1002 16.562 10.7886 16.562 8.40698Z" fill="#1E73BE"/>
      <path d="M9.66553 12.371C11.0261 12.371 11.0261 12.371 11.5253 12.707C11.9265 13.1173 12.0166 13.5378 12.0177 14.0931C12.009 14.5664 11.8804 14.984 11.5506 15.334C10.9868 15.8053 10.4158 15.6834 9.66553 15.6834C9.66553 14.5903 9.66553 13.4971 9.66553 12.371Z" fill="#1F73BE"/>
      <path d="M16.562 16.1721C17.1534 16.1721 17.7447 16.1721 18.354 16.1721C18.354 17.301 18.354 18.4299 18.354 19.593C17.7626 19.593 17.1713 19.593 16.562 19.593C16.562 18.4641 16.562 17.3352 16.562 16.1721Z" fill="#1E73BE"/>
    </g>
    <path d="M39.0107 20.4194H34.3477V7.38314H38.8499C40.0183 7.38314 41.0421 7.65911 41.9211 8.21111C42.8108 8.76311 43.5075 9.53235 44.0114 10.5189C44.5152 11.5054 44.7671 12.6446 44.7671 13.9365C44.7671 15.2049 44.5205 16.3264 44.0275 17.3012C43.5451 18.276 42.8697 19.0394 42.0015 19.5914C41.1439 20.1434 40.1469 20.4194 39.0107 20.4194ZM36.9525 8.68676V19.151L35.7144 17.7769H38.7534C39.4395 17.7769 40.0237 17.6242 40.5061 17.3188C40.9992 17.0135 41.3744 16.5731 41.6316 15.9976C41.8889 15.4222 42.0175 14.7351 42.0175 13.9365C42.0175 13.1144 41.8782 12.4156 41.5995 11.8401C41.3315 11.2529 40.9402 10.8066 40.4257 10.5013C39.9218 10.1842 39.3108 10.0256 38.5926 10.0256H35.7144L36.9525 8.68676ZM50.0049 20.6484C49.2009 20.6484 48.4827 20.4487 47.8502 20.0494C47.2285 19.6501 46.7354 19.104 46.3709 18.4111C46.0172 17.7064 45.8403 16.9019 45.8403 15.9976C45.8403 15.0816 46.0118 14.2771 46.3549 13.5841C46.7086 12.8795 47.1963 12.3275 47.8181 11.9282C48.4398 11.5289 49.1527 11.3292 49.9566 11.3292C50.8035 11.3292 51.5324 11.523 52.1434 11.9106C52.7545 12.2864 53.2261 12.8266 53.5584 13.5313C53.8907 14.2242 54.0569 15.0522 54.0569 16.0152V16.7023L47.1428 16.7375L47.1749 15.0639H51.5967C51.5967 14.5942 51.452 14.2242 51.1626 13.9541C50.8732 13.6722 50.4765 13.5313 49.9727 13.5313C49.5547 13.5313 49.2116 13.6194 48.9436 13.7955C48.6864 13.9717 48.4934 14.2477 48.3648 14.6235C48.2362 14.9876 48.1718 15.4574 48.1718 16.0328C48.1718 16.8549 48.3219 17.4657 48.6221 17.865C48.9329 18.2525 49.4099 18.4463 50.0531 18.4463C50.5248 18.4463 50.916 18.3582 51.2269 18.1821C51.5378 18.0059 51.7361 17.7593 51.8219 17.4422H54.0891C53.9497 18.417 53.5102 19.1979 52.7705 19.7852C52.0309 20.3606 51.109 20.6484 50.0049 20.6484ZM57.9995 20.4194H55.5232V7.13651H57.9995V20.4194ZM62.1404 20.4194L59.0049 11.6111H61.6741L62.655 14.694C62.8585 15.3399 63.0303 15.9213 63.1695 16.438C63.3197 16.943 63.4107 17.2953 63.4429 17.495C63.4966 17.2367 63.5981 16.8491 63.7484 16.3323C63.9092 15.8156 64.0916 15.2694 64.2951 14.694L65.3724 11.6111H67.9451L64.5845 20.4194H62.1404ZM72.287 20.6484C71.4831 20.6484 70.7645 20.4487 70.1324 20.0494C69.5103 19.6501 69.0174 19.104 68.6531 18.4111C68.2993 17.7064 68.1225 16.9019 68.1225 15.9976C68.1225 15.0816 68.2938 14.2771 68.637 13.5841C68.9908 12.8795 69.4782 12.3275 70.1002 11.9282C70.7218 11.5289 71.4348 11.3292 72.2388 11.3292C73.0855 11.3292 73.8146 11.523 74.4256 11.9106C75.0366 12.2864 75.5079 12.8266 75.8406 13.5313C76.1727 14.2242 76.339 15.0522 76.339 16.0152V16.7023L69.4249 16.7375L69.4571 15.0639H73.8789C73.8789 14.5942 73.7342 14.2242 73.4448 13.9541C73.1553 13.6722 72.7584 13.5313 72.2549 13.5313C71.8368 13.5313 71.4936 13.6194 71.2258 13.7955C70.9685 13.9717 70.7756 14.2477 70.6469 14.6235C70.5183 14.9876 70.454 15.4574 70.454 16.0328C70.454 16.8549 70.6037 17.4657 70.9042 17.865C71.2147 18.2525 71.6921 18.4463 72.3353 18.4463C72.8066 18.4463 73.198 18.3582 73.5091 18.1821C73.8196 18.0059 74.0181 17.7593 74.104 17.4422H76.3712C76.2315 18.417 75.7923 19.1979 75.0527 19.7852C74.313 20.3606 73.391 20.6484 72.287 20.6484ZM83.9903 20.4194H81.2729L85.5179 7.38314H88.0584L92.2873 20.4194H89.5217L88.6855 17.6712H84.8425L83.9903 20.4194ZM86.4505 12.4919L85.5983 15.2753H87.9459L87.0937 12.4919C87.0293 12.2688 86.965 12.0398 86.9007 11.8049C86.8364 11.57 86.7932 11.3762 86.7721 11.2235C86.7505 11.3762 86.7078 11.57 86.6434 11.8049C86.5897 12.028 86.5254 12.257 86.4505 12.4919ZM96.277 7.38314V20.4194H93.6721V7.38314H96.277Z" fill="#1E73BE"/>
  </g>
  <defs>
    <clipPath id="clip0_66_1047">
      <rect width="110" height="27.8022" fill="white" transform="translate(0 0.0989075)"/>
    </clipPath>
  </defs>
</svg>
