<svg width="80" height="80" viewBox="0 0 80 80" fill="none" xmlns="http://www.w3.org/2000/svg">
<rect x="-0.000976562" width="80.002" height="80.002" rx="40.001" fill="url(#paint0_linear_83_5554)" fill-opacity="0.1"/>
<g filter="url(#filter0_d_83_5554)">
<rect x="13.333" y="13.3335" width="53.3346" height="53.3346" rx="26.6673" fill="white"/>
<rect x="14.1664" y="14.1668" width="51.6679" height="51.6679" rx="25.834" stroke="#1E73BE" stroke-opacity="0.2" stroke-width="1.66671"/>
<path d="M34.4444 35.8341H45.5556M34.4444 41.3896H42.7778M40.6944 51.8063L40 52.5008L35.8333 48.3341H31.6667C30.5616 48.3341 29.5018 47.8951 28.7204 47.1137C27.939 46.3323 27.5 45.2725 27.5 44.1674V33.0563C27.5 31.9512 27.939 30.8914 28.7204 30.11C29.5018 29.3286 30.5616 28.8896 31.6667 28.8896H48.3333C49.4384 28.8896 50.4982 29.3286 51.2796 30.11C52.061 30.8914 52.5 31.9512 52.5 33.0563V40.6952M45.5556 49.723H53.8889M49.7222 45.5563V53.8896" stroke="#1E73BE" stroke-width="3.33341" stroke-linecap="round" stroke-linejoin="round"/>
</g>
<defs>
<filter id="filter0_d_83_5554" x="11.6663" y="11.6668" width="56.6679" height="56.6681" filterUnits="userSpaceOnUse" color-interpolation-filters="sRGB">
<feFlood flood-opacity="0" result="BackgroundImageFix"/>
<feColorMatrix in="SourceAlpha" type="matrix" values="0 0 0 0 0 0 0 0 0 0 0 0 0 0 0 0 0 0 127 0" result="hardAlpha"/>
<feOffset/>
<feGaussianBlur stdDeviation="0.833354"/>
<feComposite in2="hardAlpha" operator="out"/>
<feColorMatrix type="matrix" values="0 0 0 0 0 0 0 0 0 0 0 0 0 0 0 0 0 0 0.1 0"/>
<feBlend mode="normal" in2="BackgroundImageFix" result="effect1_dropShadow_83_5554"/>
<feBlend mode="normal" in="SourceGraphic" in2="effect1_dropShadow_83_5554" result="shape"/>
</filter>
<linearGradient id="paint0_linear_83_5554" x1="-42" y1="-24" x2="76.5" y2="106.5" gradientUnits="userSpaceOnUse">
<stop stop-color="#101828"/>
<stop offset="1" stop-color="#39558E" stop-opacity="0.1"/>
</linearGradient>
</defs>
</svg>
