<svg xmlns="http://www.w3.org/2000/svg" width="25" height="24" viewBox="0 0 25 24" fill="none">
  <path d="M21.5002 19.0829V15.9169C21.5002 14.1479 21.5002 13.2639 20.9602 13.0439C20.4202 12.8239 19.7842 13.4489 18.5132 14.6999C17.8512 15.3509 17.4662 15.4909 16.5422 15.4909C15.7222 15.4909 15.3132 15.4909 15.0192 15.6849C14.4152 16.0809 14.5002 16.8629 14.5002 17.4999C14.5002 18.1369 14.4152 18.9189 15.0192 19.3149C15.3132 19.5089 15.7232 19.5089 16.5422 19.5089C17.4662 19.5089 17.8512 19.6489 18.5122 20.2999C19.7842 21.5509 20.4202 22.1769 20.9602 21.9559C21.5002 21.7359 21.5002 20.8519 21.5002 19.0829Z" stroke="white" stroke-width="1.5" stroke-linecap="round" stroke-linejoin="round"/>
  <path d="M12.5 22H11.227C7.967 22 6.335 22 5.203 21.202C4.88085 20.9761 4.5929 20.705 4.348 20.397C3.5 19.331 3.5 17.797 3.5 14.727V12.182C3.5 9.219 3.5 7.737 3.969 6.554C4.723 4.651 6.317 3.151 8.339 2.441C9.595 2 11.168 2 14.318 2C16.116 2 17.016 2 17.734 2.252C18.889 2.658 19.8 3.515 20.231 4.602C20.5 5.278 20.5 6.125 20.5 7.818V10" stroke="white" stroke-width="1.5" stroke-linecap="round" stroke-linejoin="round"/>
  <path d="M3.5 12C3.5 11.116 3.85115 10.2683 4.47621 9.64321C5.10127 9.01815 5.94903 8.667 6.833 8.667C7.499 8.667 8.284 8.783 8.931 8.61C9.21371 8.53392 9.47145 8.38485 9.67838 8.17774C9.88531 7.97064 10.0342 7.71277 10.11 7.43C10.283 6.783 10.167 5.998 10.167 5.332C10.1673 4.44821 10.5185 3.6007 11.1436 2.97586C11.7686 2.35102 12.6162 2 13.5 2" stroke="white" stroke-width="1.5" stroke-linecap="round" stroke-linejoin="round"/>
</svg>
