<svg xmlns="http://www.w3.org/2000/svg" width="20" height="20" viewBox="0 0 20 20" fill="none">
  <path fill-rule="evenodd" clip-rule="evenodd" d="M10.2087 2.36175C9.82533 2.29675 9.30199 2.29175 8.35866 2.29175C6.76116 2.29175 5.62533 2.29341 4.76533 2.40841C3.92199 2.52091 3.43783 2.73341 3.08533 3.08508C2.73283 3.43758 2.52116 3.92091 2.40866 4.75925C2.29366 5.61591 2.29199 6.74425 2.29199 8.33425V11.6676C2.29199 13.2559 2.29366 14.3842 2.40866 15.2409C2.52116 16.0792 2.73283 16.5626 3.08533 16.9159C3.43783 17.2676 3.92116 17.4792 4.75949 17.5917C5.61616 17.7076 6.74449 17.7084 8.33366 17.7084H11.667C13.2562 17.7084 14.3853 17.7067 15.242 17.5917C16.0795 17.4792 16.5628 17.2676 16.9153 16.9151C17.2678 16.5626 17.4795 16.0792 17.592 15.2409C17.707 14.3851 17.7087 13.2559 17.7087 11.6667V11.3026C17.7087 10.0226 17.7003 9.41591 17.5637 8.95841H14.9553C14.0112 8.95841 13.2403 8.95842 12.6303 8.87675C11.9945 8.79092 11.4428 8.60591 11.002 8.16508C10.5612 7.72425 10.3762 7.17341 10.2903 6.53591C10.2087 5.92758 10.2087 5.15591 10.2087 4.21091V2.36175ZM11.4587 3.00841V4.16675C11.4587 5.16675 11.4603 5.85341 11.5295 6.36925C11.5962 6.86758 11.7162 7.11175 11.8862 7.28091C12.0553 7.45091 12.2995 7.57091 12.7978 7.63758C13.3137 7.70675 14.0003 7.70841 15.0003 7.70841H16.6837C16.3639 7.40391 16.0388 7.10498 15.7087 6.81175L12.4095 3.84258C12.0983 3.55809 11.7812 3.27997 11.4587 3.00841ZM8.47949 1.04175C9.63366 1.04175 10.3795 1.04175 11.0653 1.30425C11.7512 1.56758 12.3028 2.06425 13.157 2.83341L13.2462 2.91341L16.5445 5.88258L16.6487 5.97591C17.6353 6.86341 18.2737 7.43758 18.6162 8.20758C18.9595 8.97758 18.9595 9.83591 18.9587 11.1626V11.7134C18.9587 13.2451 18.9587 14.4584 18.8312 15.4076C18.6995 16.3842 18.4228 17.1751 17.7995 17.7992C17.1753 18.4226 16.3845 18.6992 15.4078 18.8309C14.4578 18.9584 13.2453 18.9584 11.7137 18.9584H8.28699C6.75533 18.9584 5.54199 18.9584 4.59283 18.8309C3.61616 18.6992 2.82533 18.4226 2.20116 17.7992C1.57783 17.1751 1.30116 16.3842 1.16949 15.4076C1.04199 14.4576 1.04199 13.2451 1.04199 11.7134V8.28758C1.04199 6.75591 1.04199 5.54258 1.16949 4.59341C1.30116 3.61675 1.57783 2.82591 2.20116 2.20175C2.82616 1.57758 3.61866 1.30175 4.59949 1.17008C5.55283 1.04258 6.77199 1.04258 8.31199 1.04258H8.35866L8.47949 1.04175Z" fill="white"/>
  <path fill-rule="evenodd" clip-rule="evenodd" d="M6.65604 15.8725C6.77188 15.9811 6.92473 16.0416 7.08354 16.0416C7.24234 16.0416 7.39519 15.9811 7.51104 15.8725L9.1777 14.31C9.29578 14.1959 9.36424 14.04 9.3683 13.8759C9.37235 13.7118 9.31167 13.5527 9.19937 13.4329C9.08707 13.3132 8.93216 13.2424 8.76813 13.2359C8.60409 13.2295 8.44409 13.2878 8.3227 13.3983L7.70854 13.9733V11.25C7.70854 11.0842 7.64269 10.9253 7.52548 10.8081C7.40827 10.6908 7.2493 10.625 7.08354 10.625C6.91778 10.625 6.75881 10.6908 6.6416 10.8081C6.52438 10.9253 6.45854 11.0842 6.45854 11.25V13.9742L5.84437 13.3983C5.78478 13.3408 5.71434 13.2956 5.63714 13.2655C5.55995 13.2355 5.47755 13.221 5.39472 13.2231C5.31189 13.2251 5.2303 13.2436 5.15469 13.2775C5.07908 13.3113 5.01095 13.3599 4.95427 13.4203C4.8976 13.4808 4.8535 13.5519 4.82455 13.6295C4.7956 13.7071 4.78238 13.7897 4.78564 13.8725C4.78891 13.9553 4.8086 14.0366 4.84358 14.1117C4.87855 14.1868 4.92811 14.2542 4.98937 14.31L6.65604 15.8725Z" fill="white"/>
</svg>
