<svg xmlns="http://www.w3.org/2000/svg" width="25" height="24" viewBox="0 0 25 24" fill="none">
  <path d="M18.2661 15.3699C18.0761 15.3699 17.8861 15.2999 17.7361 15.1499C17.4461 14.8599 17.4461 14.3799 17.7361 14.0899L19.7661 12.0599L17.7361 10.0299C17.4461 9.73994 17.4461 9.25994 17.7361 8.96994C18.0261 8.67994 18.5061 8.67994 18.7961 8.96994L21.3561 11.5299C21.6461 11.8199 21.6461 12.2999 21.3561 12.5899L18.7961 15.1499C18.6461 15.2999 18.4561 15.3699 18.2661 15.3699Z" fill="#101828"/>
  <path d="M20.7559 12.8101H10.5859C10.1759 12.8101 9.83594 12.4701 9.83594 12.0601C9.83594 11.6501 10.1759 11.3101 10.5859 11.3101H20.7559C21.1659 11.3101 21.5059 11.6501 21.5059 12.0601C21.5059 12.4701 21.1659 12.8101 20.7559 12.8101Z" fill="#101828"/>
  <path d="M12.5859 20.75C7.43594 20.75 3.83594 17.15 3.83594 12C3.83594 6.85 7.43594 3.25 12.5859 3.25C12.9959 3.25 13.3359 3.59 13.3359 4C13.3359 4.41 12.9959 4.75 12.5859 4.75C8.31594 4.75 5.33594 7.73 5.33594 12C5.33594 16.27 8.31594 19.25 12.5859 19.25C12.9959 19.25 13.3359 19.59 13.3359 20C13.3359 20.41 12.9959 20.75 12.5859 20.75Z" fill="#101828"/>
</svg>
