<svg xmlns="http://www.w3.org/2000/svg" width="72" height="66" viewBox="0 0 72 66" fill="none">
  <path d="M35.5005 0.000516015C35.7018 0.0008632 35.7018 0.0008632 35.907 0.00121731C37.8946 0.0069845 39.8286 0.0715893 41.7841 0.421048C41.9708 0.451703 41.9708 0.451703 42.1611 0.482975C50.4551 1.85694 58.4307 6.18067 63.5557 12.3546C63.6134 12.4232 63.6711 12.4918 63.7307 12.5625C64.7962 13.8314 65.7312 15.1593 66.6064 16.5441C66.661 16.63 66.7158 16.7161 66.7721 16.8047C68.6001 19.7143 69.7935 22.961 70.5325 26.2401C70.553 26.3304 70.5734 26.4206 70.5946 26.5136C71.0085 28.4995 71.0959 30.4844 71.0872 32.5005C71.0869 32.6847 71.0869 32.6847 71.0865 32.8727C71.0801 34.6923 71.0096 36.4628 70.6279 38.2531C70.6055 38.367 70.5833 38.4809 70.5603 38.5982C69.0594 46.1913 64.3365 53.4928 57.5928 58.1847C57.5178 58.2377 57.4429 58.2905 57.3657 58.3451C55.9797 59.3205 54.5291 60.1764 53.0165 60.9777C52.9227 61.0277 52.8287 61.0777 52.732 61.1293C49.5539 62.8029 46.0073 63.8953 42.4255 64.5721C42.327 64.5907 42.2284 64.6095 42.1268 64.6287C39.9576 65.0078 37.7895 65.0878 35.5872 65.0799C35.4531 65.0796 35.319 65.0795 35.1807 65.0792C33.1931 65.0734 31.2593 65.0088 29.3037 64.6594C29.1793 64.6389 29.0549 64.6184 28.9267 64.5973C20.6328 63.2234 12.6572 58.8997 7.53217 52.7258C7.4744 52.6571 7.41661 52.5886 7.35708 52.5179C6.29162 51.249 5.35664 49.9211 4.4814 48.5363C4.42673 48.4504 4.37204 48.3643 4.3157 48.2757C2.4877 45.3661 1.29436 42.1194 0.555251 38.8402C0.534806 38.75 0.51436 38.6598 0.493296 38.5668C0.07931 36.5809 -0.00807703 34.596 0.000563666 32.5799C0.000816333 32.4571 0.00106915 32.3342 0.00132954 32.2077C0.00762925 30.3881 0.0781975 28.6176 0.459914 26.8273C0.493398 26.6564 0.493398 26.6564 0.527557 26.4822C2.02835 18.8891 6.75121 11.5875 13.4951 6.89566C13.57 6.84275 13.6449 6.78986 13.7221 6.73536C15.1081 5.75994 16.5586 4.90396 18.0712 4.10269C18.1652 4.05263 18.2591 4.00258 18.3558 3.951C21.534 2.27748 25.0805 1.18497 28.6623 0.508329C28.7609 0.489612 28.8594 0.470893 28.9609 0.451609C31.1301 0.0726078 33.2984 -0.00739434 35.5005 0.000516015Z" fill="#72C7EF"/>
  <path d="M35.5005 0.000516015C35.7018 0.0008632 35.7018 0.0008632 35.907 0.00121731C37.8946 0.0069845 39.8286 0.0715893 41.7841 0.421048C41.9708 0.451703 41.9708 0.451703 42.1611 0.482975C50.4551 1.85694 58.4307 6.18067 63.5557 12.3546C63.6134 12.4232 63.6711 12.4918 63.7307 12.5625C64.7962 13.8314 65.7312 15.1593 66.6064 16.5441C66.661 16.63 66.7158 16.7161 66.7721 16.8047C69.6464 21.3797 71.1664 26.7631 71.0439 32.0323C70.2595 31.4472 69.5952 30.8077 68.9261 30.114C67.783 28.9417 66.6193 27.7893 65.4415 26.6461C64.7321 25.9565 64.0325 25.2616 63.3509 24.5489C62.5575 23.7211 61.7449 22.9137 60.8981 22.1316C60.8294 22.0681 60.7609 22.0047 60.6901 21.9394C58.5392 19.9763 56.5764 19.163 53.5289 19.1493C51.9625 19.1619 50.4094 19.2771 48.8564 19.464C48.8564 19.9248 48.8564 20.3858 48.8564 20.8605C47.9848 20.2134 47.2163 19.483 46.4387 18.7448C45.9446 18.2769 45.4462 17.813 44.9487 17.3481C44.5133 16.9408 44.0793 16.5321 43.6481 16.1209C43.2285 15.721 42.8055 15.3247 42.3796 14.9304C42.2188 14.7802 42.0592 14.6289 41.9011 14.4763C41.0907 13.6396 41.0907 13.6396 40.0261 13.1752C39.6659 13.2041 39.3561 13.2735 39.0107 13.3703C38.8009 13.4025 38.5905 13.4324 38.38 13.4598C38.1627 13.4943 37.9455 13.5293 37.7285 13.5647C37.5482 13.5935 37.5482 13.5935 37.3642 13.6229C36.9682 13.6864 36.5724 13.7505 36.1765 13.8146C35.8928 13.8602 35.6092 13.9058 35.3255 13.9513C34.5772 14.0715 33.8291 14.1922 33.0811 14.3132C32.6437 14.384 32.2064 14.4545 31.769 14.5252C30.6177 14.7108 29.4664 14.8966 28.3153 15.083C25.9987 15.4578 23.6818 15.8308 21.3647 16.2029C21.2012 16.2291 21.0378 16.2554 20.8692 16.2826C20.094 16.407 19.3187 16.5314 18.5434 16.6555C17.9402 16.752 17.3373 16.8496 16.7346 16.948C16.5879 16.9717 16.4412 16.9954 16.2899 17.02C16.0132 17.0648 15.7364 17.11 15.4597 17.1555C15.2753 17.1854 15.2753 17.1854 15.0872 17.2156C14.9801 17.2331 14.873 17.2506 14.7627 17.2686C14.4658 17.3057 14.4658 17.3057 13.9111 17.3057C13.3739 21.9319 13.017 26.5636 12.8297 31.2124C12.8191 31.4762 12.8081 31.74 12.7971 32.0038C12.4535 40.3935 12.5569 47.9948 19.1185 54.5218C20.452 55.8204 21.8813 57.0157 23.3495 58.1847C23.4604 58.2734 23.5713 58.3621 23.6856 58.4534C26.5378 60.7284 29.5047 62.838 32.6318 64.7863C32.5861 64.8701 32.5403 64.9539 32.4932 65.0402C23.0036 64.0649 14.2922 60.2151 8.12154 53.424C7.92292 53.1928 7.72658 52.9599 7.53217 52.7258C7.4744 52.6571 7.41661 52.5886 7.35708 52.5179C6.29162 51.249 5.35664 49.9211 4.4814 48.5363C4.42673 48.4504 4.37204 48.3643 4.3157 48.2757C2.4877 45.3661 1.29436 42.1194 0.555251 38.8402C0.534806 38.75 0.51436 38.6598 0.493296 38.5668C0.07931 36.5809 -0.00807703 34.596 0.000563666 32.5799C0.000816333 32.4571 0.00106915 32.3342 0.00132954 32.2077C0.00762925 30.3881 0.0781975 28.6176 0.459914 26.8273C0.493398 26.6564 0.493398 26.6564 0.527557 26.4822C2.02835 18.8891 6.75121 11.5875 13.4951 6.89566C13.57 6.84275 13.6449 6.78986 13.7221 6.73536C15.1081 5.75994 16.5586 4.90396 18.0712 4.10269C18.1652 4.05263 18.2591 4.00258 18.3558 3.951C21.534 2.27748 25.0805 1.18497 28.6623 0.508329C28.7609 0.489612 28.8594 0.470893 28.9609 0.451609C31.1301 0.0726078 33.2984 -0.00739434 35.5005 0.000516015Z" fill="#D1EFFE"/>
  <path d="M40.2598 13.2432C40.2598 25.9791 40.2598 38.715 40.2598 51.8368C39.4263 51.8368 38.7209 51.819 37.9202 51.6827C37.7668 51.6578 37.7668 51.6578 37.6101 51.6324C37.271 51.5771 36.9323 51.5206 36.5936 51.4639C36.3494 51.424 36.1052 51.3841 35.861 51.3443C35.2001 51.236 34.5393 51.1268 33.8787 51.017C32.7509 50.8296 31.6228 50.6434 30.4947 50.457C30.2031 50.4087 29.9114 50.3605 29.6197 50.3122C27.1894 49.91 24.7565 49.5251 22.3213 49.1482C20.6585 48.8909 18.9964 48.6298 17.3356 48.3616C17.2396 48.3462 17.1437 48.3307 17.0449 48.3148C15.9974 48.1461 14.9554 47.9654 13.9121 47.7743C13.9121 37.7197 13.9121 27.665 13.9121 17.3057C18.2351 16.5728 18.2351 16.5728 20.3943 16.2281C20.5496 16.2034 20.7048 16.1785 20.8649 16.153C21.0245 16.1275 21.1839 16.1021 21.3483 16.0758C21.6899 16.0211 22.0313 15.9665 22.3727 15.9118C23.0801 15.7984 23.7876 15.6851 24.4952 15.5719C25.7125 15.3771 26.9298 15.1816 28.147 14.9859C28.9816 14.8517 29.8161 14.7177 30.6509 14.5841C32.0159 14.3653 33.381 14.1464 34.7449 13.9214C35.262 13.8362 35.7792 13.7516 36.2964 13.667C36.531 13.6284 36.7655 13.5895 37 13.5502C37.3179 13.4969 37.636 13.4448 37.9543 13.3929C38.1299 13.3638 38.3054 13.3346 38.4863 13.3046C39.0117 13.2432 39.0117 13.2432 40.2598 13.2432Z" fill="#1E73BE"/>
  <path d="M48.9941 31.3975C51.6941 31.3975 54.3942 31.3975 57.1758 31.3975C57.1758 36.0896 57.1758 40.7819 57.1758 45.6162C54.476 45.6162 51.776 45.6162 48.9941 45.6162C48.9941 40.9241 48.9941 36.2319 48.9941 31.3975Z" fill="#1E73BE"/>
  <path d="M22.2305 26.7002C29.804 26.7002 29.804 26.7002 31.6602 28.3506C32.7666 29.5642 33.2112 30.9359 33.2202 32.4845C33.2231 32.6053 33.2259 32.7263 33.2288 32.8507C33.2386 34.4701 32.6295 35.9431 31.3828 37.1104C28.6151 39.1203 25.9146 38.5069 22.2305 38.5069C22.2305 34.6107 22.2305 30.7144 22.2305 26.7002Z" fill="#FBFDFE"/>
  <path d="M48.9941 19.4639C51.6941 19.4639 54.3942 19.4639 57.1758 19.4639C57.1758 22.7317 57.1758 25.9993 57.1758 29.3662C54.476 29.3662 51.776 29.3662 48.9941 29.3662C48.9941 26.0984 48.9941 22.8307 48.9941 19.4639Z" fill="#1E73BE"/>
  <path d="M42.3379 19.4639C43.848 19.4639 45.3582 19.4639 46.9142 19.4639C46.9142 24.8682 46.9142 30.2727 46.9142 35.8408C45.404 35.8408 43.8939 35.8408 42.3379 35.8408C42.3379 30.4364 42.3379 25.032 42.3379 19.4639Z" fill="#1E73BE"/>
  <path d="M24.7285 28.7314C28.2032 28.7314 28.2032 28.7314 29.478 29.517C30.5025 30.4763 30.7325 31.4595 30.7353 32.7576C30.7132 33.8642 30.3847 34.8406 29.5425 35.6587C28.1027 36.7606 26.6446 36.4756 24.7285 36.4756C24.7285 33.92 24.7285 31.3644 24.7285 28.7314Z" fill="#1F73BE"/>
  <path d="M42.3379 37.6182C43.848 37.6182 45.3582 37.6182 46.9142 37.6182C46.9142 40.2574 46.9142 42.8969 46.9142 45.6161C45.404 45.6161 43.8939 45.6161 42.3379 45.6161C42.3379 42.9768 42.3379 40.3374 42.3379 37.6182Z" fill="#1E73BE"/>
</svg>
