<svg width="24" height="24" viewBox="0 0 24 24" fill="none" xmlns="http://www.w3.org/2000/svg">
  <path fill-rule="evenodd" clip-rule="evenodd" d="M15.107 23.5911C21.5086 21.8758 25.3075 15.2958 23.5922 8.8942C21.8769 2.49261 15.2969 -1.30638 8.89531 0.408923C2.49372 2.12422 -1.30527 8.70427 0.410028 15.1059C2.12533 21.5075 8.70537 25.3064 15.107 23.5911ZM14.5893 21.6593C19.924 20.2299 23.0898 14.7465 21.6604 9.41184C20.231 4.07718 14.7476 0.911357 9.41295 2.34077C4.07829 3.77019 0.912461 9.25356 2.34188 14.5882C3.7713 19.9229 9.25467 23.0887 14.5893 21.6593Z" fill="url(#paint0_angular_2_119)"/>
  <path fill-rule="evenodd" clip-rule="evenodd" d="M21.7937 6.89197C22.3045 6.68194 22.8888 6.92576 23.0988 7.43655C23.2941 7.91138 23.4587 8.39826 23.5915 8.89418C23.7345 9.42764 23.4179 9.97598 22.8844 10.1189C22.351 10.2619 21.8026 9.94528 21.6597 9.41181C21.549 8.99855 21.4118 8.59282 21.2491 8.19712C21.0391 7.68633 21.2829 7.10199 21.7937 6.89197Z" fill="#3AE180"/>
  <defs>
    <radialGradient id="paint0_angular_2_119" cx="0" cy="0" r="1" gradientUnits="userSpaceOnUse" gradientTransform="translate(12.0011 12) rotate(-15) scale(12)">
      <stop stop-color="#000000" stop-opacity="0"/>
      <stop offset="0.1" stop-color="#000000" stop-opacity="0.1"/>
      <stop offset="0.3" stop-color="#000000" stop-opacity="0.3"/>
      <stop offset="0.5" stop-color="#000000" stop-opacity="0.5"/>
      <stop offset="0.7" stop-color="#000000" stop-opacity="0.7"/>
      <stop offset="0.9" stop-color="#000000" stop-opacity="0.9"/>
      <stop offset="1" stop-color="#3AE180"/>
    </radialGradient>
  </defs>
</svg>
